#
#
#

mtllib test pyramid2.mtl


#
#  Mesh Mesh
#
g  Mesh Mesh


#
#  Mesh Mesh_ Mesh__lambert2
#
usemtl  Mesh Mesh_ Mesh__lambert2

v -6.051689 -0.011322 -6.051689
v 6.051689 -0.011322 -6.051689
v 6.051689 -0.011322 6.051689
v -6.051689 -0.011322 6.051689
v -6.051689 -0.011322 -6.051689
v -6.051689 -0.011322 6.051689
v 0.000000 8.547050 0.000000
v -6.051689 -0.011322 6.051689
v 6.051689 -0.011322 6.051689
v 0.000000 8.547050 0.000000
v 6.051689 -0.011322 6.051689
v 6.051689 -0.011322 -6.051689
v 0.000000 8.547050 0.000000
v 6.051689 -0.011322 -6.051689
v -6.051689 -0.011322 -6.051689
v 0.000000 8.547050 0.000000
vn 0.000000 -1.000000 0.000000
vn -0.816496 0.577351 0.000000
vn 0.000000 0.577351 0.816496
vn 0.816496 0.577351 0.000000
vn 0.000000 0.577351 -0.816496
vt 6.660030 6.66003
vt 3.339970 6.660030
vt 3.339970 3.339970
vt 6.660030 3.339970
vt 9.980080 5.000000
vt 5.000000 0.019920
vt 0.019920 4.998990
vt 5.000000 9.980080
f 1/1/1 2/2/1 3/3/1
f 1/1/1 3/3/1 4/4/1
f 5/1/2 6/4/2 7/5/2
f 8/4/3 9/3/3 10/6/3
f 11/3/4 12/2/4 13/7/4
f 14/2/5 15/1/5 16/8/5
